HIERARCHY
ROOT Hips
{
	OFFSET	0.00	0.00	0.00
	CHANNELS 6 Xposition Yposition Zposition Zrotation Xrotation Yrotation
	JOINT LeftUpLeg
	{
		OFFSET	 0.126116	-0.014019	-0.065224
		CHANNELS 3 Zrotation Xrotation Yrotation
		JOINT LeftLeg
		{
			OFFSET	 0.000000	 0.000000	 0.569914
			CHANNELS 3 Zrotation Xrotation Yrotation
			JOINT LeftFoot
			{
				OFFSET	 0.000000	 0.000000	 0.544423
				CHANNELS 3 Zrotation Xrotation Yrotation
				JOINT LeftToeBase
				{
					OFFSET	 0.000000	 0.000000	 0.207117
					CHANNELS 3 Zrotation Xrotation Yrotation
					End Site
					{
						OFFSET	 0.000000	 0.000000	 0.207117
					}
				}
			}
		}
	}
	JOINT RightUpLeg
	{
		OFFSET	-0.124023	-0.008373	-0.065224
		CHANNELS 3 Zrotation Xrotation Yrotation
		JOINT RightLeg
		{
			OFFSET	 0.000000	 0.000000	 0.570047
			CHANNELS 3 Zrotation Xrotation Yrotation
			JOINT RightFoot
			{
				OFFSET	 0.000000	 0.000000	 0.544354
				CHANNELS 3 Zrotation Xrotation Yrotation
				JOINT RightToeBase
				{
					OFFSET	 0.000000	 0.000000	 0.207540
					CHANNELS 3 Zrotation Xrotation Yrotation
					End Site
					{
						OFFSET	 0.000000	 0.000000	 0.207540
					}
				}
			}
		}
	}
	JOINT Spine
	{
		OFFSET	 0.000184	-0.007763	 0.117403
		CHANNELS 3 Zrotation Xrotation Yrotation
		JOINT Spine1
		{
			OFFSET	 0.000000	 0.000000	 0.137269
			CHANNELS 3 Zrotation Xrotation Yrotation
			JOINT Spine2
			{
				OFFSET	 0.000000	 0.000000	 0.156879
				CHANNELS 3 Zrotation Xrotation Yrotation
				JOINT LeftShoulder
				{
					OFFSET	 0.080501	-0.002496	 0.160144
					CHANNELS 3 Zrotation Xrotation Yrotation
					JOINT LeftArm
					{
						OFFSET	 0.000000	 0.000000	 0.164363
						CHANNELS 3 Zrotation Xrotation Yrotation
						JOINT LeftForeArm
						{
							OFFSET	 0.000000	 0.000000	 0.364576
							CHANNELS 3 Zrotation Xrotation Yrotation
							JOINT LeftHand
							{
								OFFSET	 0.000000	 0.000000	 0.360812
								CHANNELS 3 Zrotation Xrotation Yrotation
								JOINT LeftHandIndex1
								{
									OFFSET	 0.000000	 0.000000	 0.086006
									CHANNELS 3 Zrotation Xrotation Yrotation
									JOINT LeftHandIndex2
									{
										OFFSET	 0.000000	 0.000000	 0.047236
										CHANNELS 3 Zrotation Xrotation Yrotation
										JOINT LeftHandIndex3
										{
											OFFSET	-0.004284	-0.000551	 0.038166
											CHANNELS 3 Zrotation Xrotation Yrotation
											End Site
											{
												OFFSET	-0.004284	-0.000551	 0.038166
											}
										}
									}
								}
							}
						}
					}
				}
				JOINT Neck
				{
					OFFSET	 0.000000	 0.000000	 0.176489
					CHANNELS 3 Zrotation Xrotation Yrotation
					JOINT Head
					{
						OFFSET	 0.000000	-0.001747	 0.077940
						CHANNELS 3 Zrotation Xrotation Yrotation
						End Site
						{
							OFFSET	 0.000000	-0.001747	 0.077940
						}
					}
				}
				JOINT RightShoulder
				{
					OFFSET	-0.080363	 0.000306	 0.159706
					CHANNELS 3 Zrotation Xrotation Yrotation
					JOINT RightArm
					{
						OFFSET	 0.000000	 0.000000	 0.164196
						CHANNELS 3 Zrotation Xrotation Yrotation
						JOINT RightForeArm
						{
							OFFSET	 0.000000	 0.000000	 0.365611
							CHANNELS 3 Zrotation Xrotation Yrotation
							JOINT RightHand
							{
								OFFSET	 0.000000	 0.000000	 0.360648
								CHANNELS 3 Zrotation Xrotation Yrotation
								JOINT RightHandIndex1
								{
									OFFSET	 0.000000	 0.000000	 0.069977
									CHANNELS 3 Zrotation Xrotation Yrotation
									JOINT RightHandIndex2
									{
										OFFSET	 0.000000	 0.000000	 0.052305
										CHANNELS 3 Zrotation Xrotation Yrotation
										JOINT RightHandIndex3
										{
											OFFSET	 0.009002	-0.000782	 0.042196
											CHANNELS 3 Zrotation Xrotation Yrotation
											End Site
											{
												OFFSET	 0.009002	-0.000782	 0.042196
											}
										}
									}
								}
							}
						}
					}
				}
			}
		}
	}
}
MOTION
Frames:    9
Frame Time: 0.03333334
 6.422139	 7.352929	-0.565254	-80.979260	 0.674195	 3.694802	 5.047109	-4.025981	 176.486500	-11.211060	-33.799790	-5.149091	 171.960800	 86.524470	 179.411400	-2.377216	 30.228780	-0.038867	 1.759043	-12.685330	 178.980200	 3.666012	-47.669720	 5.730000	-175.472100	 82.043080	-178.586100	 2.403678	 22.137340	-0.130336	-7.905291	 1.832709	-2.059260	-12.176110	-0.430270	-0.831924	-14.214470	-2.085485	-1.203344	-91.809820	 77.608420	 179.132800	 36.716590	 69.871570	-39.722160	-8.010486	-4.004113	-19.996560	 5.115918	-10.204990	-5.420068	-3.812334	 37.924440	-2.927599	-2.450526	 36.184240	 0.754587	-1.378229	 35.397820	-2.634230	 0.506565	 6.050768	-3.202317	-3.367019	-13.565940	-2.595660	 89.765290	 79.266490	-179.645200	-36.380780	 70.361440	 39.097430	 4.259494	-7.798922	 30.630030	-9.951883	-11.106050	 9.769064	 6.437017	 35.671460	-0.771858	 2.830251	 35.756010	-7.813440	-2.350882	 35.473990	 5.254307
 6.436058	 7.350380	-0.566659	-80.662560	 0.824203	 3.719029	 5.020104	-4.503793	 176.597500	-10.861740	-34.469760	-5.053786	 172.071400	 85.932590	 179.614700	-2.374835	 30.670100	-0.048685	 1.945807	-13.248240	 178.996600	 4.163211	-48.897730	 6.381758	-176.201500	 81.289540	-177.557000	 2.402833	 22.597860	-0.121019	-8.098280	 1.990426	-2.065390	-12.241260	-0.434168	-0.917658	-14.362360	-2.114187	-1.219586	-91.805350	 77.675160	 179.189700	 36.602380	 69.649830	-39.768750	-8.288363	-3.994529	-20.916380	 4.778789	-10.211090	-5.444623	-3.812334	 37.924440	-2.927599	-2.450526	 36.184240	 0.754587	-1.378229	 35.397820	-2.634230	 0.376465	 5.533488	-3.471533	-3.482099	-13.174370	-2.379534	 89.765220	 79.193870	-179.616500	-36.350810	 70.530970	 39.332690	 4.334633	-7.652989	 29.857930	-10.041460	-11.127420	 9.787132	 6.437017	 35.671460	-0.771858	 2.830251	 35.756010	-7.813440	-2.350882	 35.473990	 5.254307
 6.436192	 7.347165	-0.567366	-80.774420	 0.839964	 3.595663	 5.177385	-4.682773	 176.799300	-10.794600	-34.759350	-4.941967	 172.405600	 85.691150	 179.516800	-2.374222	 30.781400	-0.051163	 2.177882	-14.073280	 179.160200	 4.467917	-50.422290	 6.985306	-176.274100	 81.134730	-177.320600	 2.400656	 23.622390	-0.100154	-8.271912	 2.279278	-1.838350	-12.377680	-0.439606	-0.929354	-14.564390	-2.128372	-1.238726	-91.799630	 77.793420	 179.248700	 36.664470	 69.464130	-40.106940	-8.421309	-3.951244	-21.182960	 4.602399	-10.222860	-5.461462	-3.812334	 37.924440	-2.927599	-2.450526	 36.184240	 0.754587	-1.378229	 35.397820	-2.634230	 0.138216	 5.590907	-3.178330	-3.717285	-13.325140	-2.852151	 89.768020	 79.069630	-179.632100	-36.471290	 70.588290	 39.711300	 4.415069	-7.587622	 29.611690	-10.061380	-11.141990	 9.802208	 6.437017	 35.671460	-0.771858	 2.830251	 35.756010	-7.813440	-2.350882	 35.473990	 5.254307
 6.436454	 7.341430	-0.568614	-81.111960	 0.876356	 3.097948	 5.767230	-4.789601	 177.341900	-11.001210	-34.998390	-4.686702	 174.558300	 85.434850	 177.826400	-2.372583	 31.070650	-0.057649	 2.296678	-16.425500	 179.848600	 5.439373	-54.406310	 8.407776	-175.929700	 81.493680	-177.511200	 2.389590	 27.199380	-0.025531	-8.510164	 2.831321	-1.158042	-12.489410	-0.478433	-0.824997	-14.699030	-2.242574	-1.264934	-91.790660	 78.034500	 179.313700	 36.832370	 69.105670	-40.955560	-8.646678	-3.847954	-21.383320	 4.329596	-10.255150	-5.491616	-3.812334	 37.924440	-2.927599	-2.450526	 36.184240	 0.754587	-1.378229	 35.397820	-2.634230	-0.003839	 5.402769	-3.195519	-3.837955	-13.543250	-3.063818	 89.773810	 78.816570	-179.692100	-36.823340	 70.640570	 40.526670	 4.612900	-7.454725	 29.372290	-9.988961	-11.167590	 9.832369	 6.437017	 35.671460	-0.771858	 2.830251	 35.756010	-7.813440	-2.350882	 35.473990	 5.254307
 6.436677	 7.333995	-0.570708	-81.791190	 0.918539	 2.198287	 6.590314	-4.522974	 178.390700	-11.555740	-34.810460	-4.367310	 176.187100	 85.369640	 176.625000	-2.370356	 31.453800	-0.066287	 2.692407	-21.040940	-178.962400	 8.178946	-61.680280	 12.043670	-173.917000	 83.872120	-179.235200	 2.352120	 33.970490	 0.125958	-8.754246	 3.448967	-0.056441	-12.526290	-0.490324	-0.529465	-14.753310	-2.401501	-1.290094	-91.781450	 78.335860	 179.367300	 36.936730	 68.613720	-42.089650	-8.882141	-3.707230	-21.328570	 4.079621	-10.312090	-5.530386	-3.812334	 37.924440	-2.927599	-2.450526	 36.184240	 0.754587	-1.378229	 35.397820	-2.634230	-0.029368	 5.311277	-3.345092	-3.881878	-14.041320	-3.240020	 89.778570	 78.505920	-179.727300	-37.386830	 70.652660	 41.590010	 4.882676	-7.294658	 29.363050	-9.801451	-11.199840	 9.877169	 6.437017	 35.671460	-0.771858	 2.830251	 35.756010	-7.813440	-2.350882	 35.473990	 5.254307
 6.435409	 7.325554	-0.573726	-82.662090	 0.977483	 1.227107	 7.672180	-3.740285	 179.534200	-12.298760	-33.944270	-3.898818	 178.043500	 85.489550	 175.251900	-2.364761	 32.364060	-0.086989	 3.197456	-27.629510	-177.868900	 17.456600	-70.359170	 22.169260	-169.103400	 88.974360	 176.847900	 2.376823	 30.016670	 0.035617	-9.134211	 3.953399	 1.066881	-12.541320	-0.416028	-0.097801	-14.743620	-2.591957	-1.313706	-91.775500	 78.550250	 179.335900	 36.761050	 67.961960	-43.088880	-9.157854	-3.493064	-20.999670	 3.752346	-10.388560	-5.581721	-3.812334	 37.924440	-2.927599	-2.450526	 36.184240	 0.754587	-1.378229	 35.397820	-2.634230	 0.017569	 5.305869	-3.539626	-3.848259	-14.709640	-3.350571	 89.781060	 78.294960	-179.723000	-38.351150	 70.594190	 43.104040	 5.101021	-7.127523	 29.516980	-9.570196	-11.222520	 9.944971	 6.437017	 35.671460	-0.771858	 2.830251	 35.756010	-7.813440	-2.350882	 35.473990	 5.254307
 6.431221	 7.318130	-0.575907	-83.092680	 1.019336	 0.583503	 8.613575	-2.979486	-179.881500	-12.638300	-32.875090	-3.339794	 179.885800	 85.751440	 174.013200	-2.354756	 33.832530	-0.121103	 3.017645	-33.417560	-177.487100	 30.172290	-74.533490	 34.827650	-117.160700	 89.562100	 126.242600	 2.386469	 27.969940	-0.009038	-9.906302	 4.420432	 1.881122	-12.767030	-0.530992	 0.092521	-14.700410	-2.826838	-1.339900	-91.767580	 78.770700	 179.204700	 36.759610	 67.361660	-44.024260	-9.420756	-3.250178	-20.669460	 3.345395	-10.468860	-5.640628	-3.812334	 37.924440	-2.927599	-2.450526	 36.184240	 0.754587	-1.378229	 35.397820	-2.634230	 0.012968	 5.160774	-3.867269	-3.609458	-15.149480	-2.961293	 89.782460	 78.069030	-179.943400	-38.808700	 70.603520	 43.692410	 5.234029	-6.983033	 29.672440	-9.405673	-11.267890	 10.010450	 6.437017	 35.671460	-0.771858	 2.830251	 35.756010	-7.813440	-2.350882	 35.473990	 5.254307
 6.421482	 7.309688	-0.575894	-83.282680	 1.181233	 0.760941	 8.425684	-1.518642	-179.765100	-12.767290	-30.997810	-3.226913	 179.418200	 86.010710	 174.177300	-2.351818	 34.232830	-0.130556	 2.353018	-37.648340	-178.400600	 30.270510	-73.834390	 34.139690	-160.860500	 88.041450	 170.302200	 2.372874	 30.748680	 0.051912	-10.982630	 4.809329	 1.782289	-13.020930	-0.566598	-0.041575	-14.671840	-3.098957	-1.372047	-91.762790	 78.832210	 179.015400	 37.494180	 66.905570	-45.966290	-9.634173	-3.045011	-20.358830	 3.077410	-10.573560	-5.711930	-3.812334	 37.924440	-2.927599	-2.450526	 36.184240	 0.754587	-1.378229	 35.397820	-2.634230	-0.042551	 4.870021	-4.089716	-3.356818	-15.303970	-2.246422	 89.781030	 78.010960	 179.868300	-38.678060	 70.778160	 43.359230	 5.547055	-6.740023	 29.733080	-9.132626	-11.325840	 10.091840	 6.437017	 35.671460	-0.771858	 2.830251	 35.756010	-7.813440	-2.350882	 35.473990	 5.254307
 6.408314	 7.301717	-0.573852	-83.632920	 1.399313	 1.049465	 7.765732	 0.567431	-179.427300	-12.793380	-27.950650	-3.073528	 177.302200	 86.635240	 175.660300	-2.357687	 33.420100	-0.111439	 2.197176	-40.137730	-179.438400	 20.883590	-69.411460	 24.146070	-170.224500	 85.961920	 179.228400	 2.363643	 32.291690	 0.086869	-11.924430	 5.363705	 1.672805	-13.183140	-0.516759	-0.242687	-14.809820	-3.152720	-1.392027	-91.758350	 78.945470	 179.047100	 38.739840	 66.593600	-48.346260	-10.160300	-2.794205	-20.638850	 2.496881	-10.673710	-5.796014	-3.812334	 37.924440	-2.927599	-2.450526	 36.184240	 0.754587	-1.378229	 35.397820	-2.634230	-0.239482	 4.709047	-3.909464	-3.473330	-15.240860	-2.385454	 89.779310	 77.885960	 179.789500	-37.764630	 71.047440	 41.947200	 5.975908	-6.421994	 29.613900	-8.804977	-11.388060	 10.181940	 6.437017	 35.671460	-0.771858	 2.830251	 35.756010	-7.813440	-2.350882	 35.473990	 5.254307
